<svg width="86" height="86" viewBox="0 0 86 86" fill="none" xmlns="http://www.w3.org/2000/svg">
<path d="M83 78.5556L78.5556 83ZM78.5556 83H7.44444ZM78.5556 83L65.6818 49.2062C63.8609 44.4267 62.9507 42.0373 62.5107 39.5707C62.12 37.3813 62.0044 35.1524 62.1671 32.9346C62.3507 30.4356 63.0093 27.9648 64.3271 23.0233L69.6667 3L43.208 17.6993C38.1929 20.4854 35.6853 21.8784 33.576 23.7139C31.7047 25.3422 30.0697 27.2236 28.7184 29.3037C27.195 31.6486 26.1653 34.3258 24.1059 39.6804L7.44444 83M7.44444 83L3 78.5556ZM51.8889 60.7778C51.8889 65.6871 47.9093 69.6667 43 69.6667C38.0907 69.6667 34.1111 65.6871 34.1111 60.7778M51.8889 60.7778C51.8889 55.8684 47.9093 51.8889 43 51.8889C38.0907 51.8889 34.1111 55.8684 34.1111 60.7778M51.8889 60.7778H69.6667ZM34.1111 60.7778H16.3333Z" fill="url(#paint0_linear_2_18)"/>
<path d="M83 78.5556L78.5556 83M78.5556 83H7.44444M78.5556 83L65.6818 49.2062C63.8609 44.4267 62.9507 42.0373 62.5107 39.5707C62.12 37.3813 62.0044 35.1524 62.1671 32.9346C62.3507 30.4356 63.0093 27.9648 64.3271 23.0233L69.6667 3L43.208 17.6993C38.1929 20.4854 35.6853 21.8784 33.576 23.7139C31.7047 25.3422 30.0697 27.2236 28.7184 29.3037C27.195 31.6486 26.1653 34.3258 24.1059 39.6804L7.44444 83M7.44444 83L3 78.5556M51.8889 60.7778C51.8889 65.6871 47.9093 69.6667 43 69.6667C38.0907 69.6667 34.1111 65.6871 34.1111 60.7778M51.8889 60.7778C51.8889 55.8684 47.9093 51.8889 43 51.8889C38.0907 51.8889 34.1111 55.8684 34.1111 60.7778M51.8889 60.7778H69.6667M34.1111 60.7778H16.3333" stroke="black" stroke-width="5" stroke-linecap="round" stroke-linejoin="round"/>
<defs>
<linearGradient id="paint0_linear_2_18" x1="65.2727" y1="13" x2="18.9091" y2="84.8182" gradientUnits="userSpaceOnUse">
<stop stop-color="#DD6302"/>
<stop offset="0.649029" stop-color="#F3B259"/>
<stop offset="1" stop-color="#FFDC88"/>
</linearGradient>
</defs>
</svg>
